PathFileType	4	(X/Y/Z)	C:/Users/beibeiliu/ov580/test_trc/User3\sequence.34_training_dense_left.trc
DataRate	CameraRate	NumFrames	NumMarkers	Units	OrigDataRate	OrigDataStartFrame	OrigNumFrames
120	120	15	19	mm	120	76	126
Frame#	Time	ThumbCMC			ThumbMCP			ThumbIP			ThumbTip			IndexMCP			IndexPIP			IndexTip			MiddleMCP			MiddlePIP			MiddleTip			RingMCP			RingPIP			RingTip			PinkyMCP			PinkyPIP			PinkyTip			BackHand1			BackHand2			BackHand3	
		X0	Y0	Z0	X1	Y1	Z1	X2	Y2	Z2	X3	Y3	Z3	X4	Y4	Z4	X5	Y5	Z5	X6	Y6	Z6	X7	Y7	Z7	X8	Y8	Z8	X9	Y9	Z9	X10	Y10	Z10	X11	Y11	Z11	X12	Y12	Z12	X13	Y13	Z13	X14	Y14	Z14	X15	Y15	Z15	X16	Y16	Z16	X17	Y17	Z17	X18	Y18	Z18	
75	0.625	-144.507	-16.4553	26.0522	-149.848	-13.4261	-1.58985	-156.064	-11.6939	-29.578	-157.939	-6.38554	-50.9324	-102.912	-32.8666	-42.7195	-89.8447	-14.5175	-64.3954	-80.6281	6.29151	-77.7349	-84.1008	-38.5499	-40.688	-67.8626	-21.297	-57.9162	-52.1247	9.28922	-71.1469	-66.4244	-48.27	-24.204	-53.7598	-38.955	-46.4379	-33.7282	-18.8216	-62.389	-55.7989	-50.302	-1.17301	-36.4033	-49.1023	-15.6466	-23.1185	-39.0274	-36.5418	-95.4264	-58.7087	20.3916	-106.359	-55.5112	53.5602	-126.847	-47.4959	27.6749	
76	0.633333	-147.023	-20.6633	23.3204	-154.491	-17.1622	-1.27058	-155.376	-16.9834	-30.7038	-162.529	-11.8813	-52.2059	-111.609	-34.8337	-43.6563	-98.367	-18.062	-66.4044	-82.456	0.620259	-76.9639	-85.86	-41.8367	-43.1245	-70.0751	-25.1942	-59.7552	-58.4688	3.2967	-72.2153	-73.2671	-51.9987	-26.2774	-52.5539	-43.1963	-47.2414	-38.3057	-25.4161	-60.7868	-55.5043	-55.5061	-2.76722	-39.6315	-52.8168	-17.2772	-22.6625	-42.4247	-39.0677	-97.8017	-61.0641	24.4772	-103.28	-61.8021	50.5728	-127.795	-52.3898	22.9351	
77	0.641667	-145.455	-25.343	26.9977	-153.105	-23.4439	-1.59879	-160.038	-20.7706	-30.9289	-163.324	-17.3972	-50.5505	-109.667	-40.6109	-43.1622	-98.2848	-23.39	-66.1846	-82.8184	-2.77563	-78.7472	-89.5506	-46.9375	-42.4089	-75.6816	-30.0373	-59.8002	-58.3332	-1.57152	-70.6319	-72.0853	-55.3987	-26.8494	-53.7868	-45.6625	-47.2972	-39.1926	-26.9228	-63.7132	-58.5496	-59.4751	-5.52064	-41.3454	-55.9708	-21.0938	-29.141	-45.9211	-37.1439	-97.7276	-68.9029	23.0671	-105.383	-63.934	52.1482	-128.635	-57.0399	23.7128	
78	0.65	-152.233	-30.3915	27.1268	-156.456	-30.4992	-2.83568	-161.006	-27.8282	-29.6707	-162.652	-25.3291	-51.4445	-111.865	-44.9255	-44.2111	-103.376	-30.0676	-64.6697	-88.7821	-10.2779	-77.03	-89.2691	-54.4818	-37.8913	-75.533	-32.6667	-61.3163	-63.9683	-5.71347	-72.612	-76.3253	-61.5349	-23.7913	-56.7041	-52.0643	-45.6248	-44.5188	-34.9998	-60.9445	-62.7878	-62.5823	-1.28879	-43.2352	-59.8104	-21.6655	-29.3771	-51.2278	-37.1025	-102.359	-70.4519	25.1348	-108.292	-68.5416	51.0264	-133.775	-59.5222	24.6782	
79	0.658333	-153.306	-34.2512	26.2128	-161.492	-32.8144	-1.25871	-168.505	-31.1505	-30.667	-169.782	-28.371	-51.5056	-115.198	-50.0156	-41.6716	-102.317	-32.1184	-65.5703	-93.5379	-14.2751	-77.973	-92.4895	-56.3933	-39.1218	-82.8353	-38.4798	-58.8939	-66.4147	-11.038	-70.8583	-78.4137	-64.5485	-28.1994	-61.2668	-55.285	-44.9179	-49.6613	-37.9108	-62.2645	-65.0512	-66.5566	-2.43483	-47.614	-64.2561	-17.0027	-33.6466	-54.5531	-34.9229	-103.465	-74.1156	26.7153	-113.287	-73.413	50.6632	-136.901	-65.1714	25.1192	
80	0.666667	-155.424	-35.4602	27.3058	-167.841	-32.2009	1.86415	-169.31	-33.5675	-28.573	-171.991	-28.7546	-48.9172	-118.845	-50.48	-45.1348	-106.694	-33.692	-65.6722	-97.7959	-11.8501	-78.7374	-97.2493	-57.3279	-39.2058	-83.9548	-39.1114	-60.1083	-72.6772	-11.667	-71.6958	-85.1533	-65.3644	-25.1963	-70.7156	-57.2043	-45.2932	-54.902	-36.8686	-64.8979	-64.9895	-69.089	-2.64744	-54.9509	-64.8049	-18.9231	-36.7213	-57.1006	-35.0984	-104.966	-79.0666	22.7595	-117.993	-72.0535	51.6116	-140.947	-65.1954	26.8211	
81	0.675	-162.943	-35.8854	28.1575	-170.015	-34.5815	0.465366	-174.877	-34.8805	-28.3093	-176.748	-29.9806	-48.2399	-124.109	-51.6525	-42.0865	-111.345	-37.7749	-62.6884	-97.4576	-15.5845	-76.9357	-103.547	-57.185	-40.3025	-91.3004	-39.5094	-60.792	-72.4399	-13.6619	-71.1616	-86.2278	-66.8926	-23.7167	-70.7413	-59.6653	-43.6181	-57.1192	-38.3344	-65.4004	-71.8281	-69.4091	-5.70965	-56.9285	-67.2209	-20.1473	-36.9286	-58.3001	-35.3055	-108.377	-78.9326	25.8766	-115.935	-74.622	53.0885	-142.627	-66.1766	26.7311	
82	0.683333	-162.822	-38.0237	28.966	-169.422	-35.1767	4.9768	-174.002	-35.4211	-28.2145	-175.652	-33.5211	-48.8043	-126.458	-53.1188	-42.781	-115.45	-38.0607	-62.7575	-99.425	-19.2799	-75.553	-104.715	-60.4684	-36.4453	-89.7406	-39.2646	-59.9473	-73.6011	-13.1013	-70.6744	-87.4344	-68.4954	-24.3329	-71.0124	-60.2361	-42.9094	-60.2768	-40.8037	-63.4297	-74.4285	-69.884	0.202131	-56.5874	-68.9146	-17.2142	-40.5315	-59.7176	-32.8643	-112.463	-79.9852	22.8001	-121.001	-76.2317	53.2519	-144.091	-69.0119	30.1818	
83	0.691667	-161.735	-35.5371	31.7248	-172.41	-33.4239	2.58385	-173.902	-34.3616	-26.4317	-178.315	-31.2466	-49.413	-127.86	-51.5671	-41.4563	-114.69	-36.3967	-62.8162	-102.308	-17.4238	-76.8752	-101.619	-58.7721	-39.6007	-88.6367	-40.0441	-57.6273	-75.3263	-13.6935	-69.2134	-89.0786	-67.4932	-23.341	-72.7478	-59.1716	-43.4459	-56.9911	-39.595	-62.2484	-72.7554	-69.0191	0.304299	-55.8265	-67.0018	-15.4228	-42.8708	-57.9851	-36.7224	-109.929	-78.41	24.6046	-117.91	-74.6517	54.7645	-145.052	-67.5205	27.8391	
84	0.7	-164.624	-35.94	25.8763	-173.66	-33.0111	-1.20523	-180.877	-32.1651	-29.8356	-181.512	-28.2275	-49.7872	-128.934	-50.2664	-43.0777	-113.507	-32.1129	-65.5989	-105.886	-14.1957	-78.6966	-106.203	-54.1725	-42.437	-91.6936	-38.946	-59.2812	-79.351	-8.50185	-73.3245	-88.0137	-64.9891	-25.999	-73.9647	-53.7393	-49.0073	-60.1294	-34.9244	-65.7421	-75.5276	-67.0385	-5.62692	-56.8111	-63.517	-18.6199	-45.1027	-55.5972	-38.5653	-110.683	-78.4482	22.8816	-121.223	-71.3148	54.0764	-147.224	-65.5175	25.6541	
85	0.708333	-167.267	-31.0173	24.4459	-173.171	-29.7309	-3.93246	-178.411	-27.5418	-31.2834	-183.849	-24.3361	-53.9159	-127.565	-45.2775	-47.0776	-117.466	-30.4747	-65.1855	-105.441	-9.0397	-80.2973	-108.652	-51.9276	-43.9554	-94.7265	-31.0624	-64.9878	-82.5679	-4.52491	-75.4	-87.889	-60.6394	-28.8141	-77.5213	-49.4638	-51.5861	-59.4961	-29.2138	-67.3022	-72.5431	-63.5626	-7.72744	-59.8163	-58.8103	-22.3858	-41.327	-48.9085	-42.3323	-112.21	-72.1807	21.98	-122.931	-68.5816	46.8275	-149.543	-60.5814	24.9971	
86	0.716667	-166.843	-27.0564	20.6853	-175.974	-23.5006	-8.901	-183.095	-19.6202	-35.3763	-182.821	-17.0925	-62.2747	-128.251	-42.0861	-49.4674	-119.601	-24.3407	-72.9932	-105.197	-2.89385	-85.9567	-106.404	-50.062	-45.3803	-95.7424	-31.146	-66.5057	-78.2065	0.33829	-80.5743	-91.9453	-56.5029	-33.52	-74.6544	-45.4771	-55.9554	-61.8571	-28.447	-69.2275	-78.3943	-59.2731	-11.8798	-62.154	-54.9543	-30.7043	-43.5885	-46.3273	-43.4188	-114.554	-67.1203	18.8749	-125.763	-65.9979	41.7705	-151.89	-57.912	18.6914	
87	0.725	-167.119	-12.6385	13.0065	-173.902	-5.75797	-16.9941	-171.586	-2.86657	-44.2089	-173.234	4.39162	-67.7264	-128.415	-33.2454	-58.1373	-115.824	-19.0707	-77.3276	-100.427	1.29136	-91.3055	-110.908	-42.5126	-55.7231	-96.6966	-25.8835	-75.2113	-78.4307	-0.394913	-85.3535	-93.6012	-54.1798	-38.3343	-79.8308	-44.3397	-60.7426	-61.9119	-24.015	-75.4175	-82.9792	-56.3855	-17.601	-62.826	-54.29	-35.255	-47.0591	-44.2806	-48.9797	-120.419	-63.172	11.1547	-130.522	-58.1015	40.0043	-154.494	-47.3485	12.1061	
88	0.733333	-159.591	13.1097	3.79024	-157.908	23.1955	-22.869	-154.507	29.763	-55.3587	-143.054	31.0507	-75.929	-133.895	-15.8839	-63.7779	-114.776	-3.84341	-88.591	-94.9527	5.23991	-98.3323	-116.981	-31.6172	-66.1032	-97.5968	-18.9713	-85.2253	-76.133	0.143611	-95.1848	-107.155	-45.8452	-47.6276	-91.488	-39.067	-70.0278	-67.5664	-25.9809	-82.4744	-98.9992	-53.3352	-30.3708	-82.3364	-53.411	-47.3967	-60.6853	-46.9785	-59.8042	-137.736	-48.1351	0.298813	-143.325	-45.6216	27.4808	-160.974	-22.7738	-1.43904	
89	0.741667	-137.07	37.1632	-0.182917	-126.426	46.3434	-26.2662	-116.258	49.0478	-55.2623	-105.433	49.4168	-73.5922	-137.666	10.5008	-72.8078	-117.579	10.9117	-97.5841	-93.8302	13.0283	-112.057	-135.356	-9.42697	-78.4421	-112.994	-5.39857	-99.5378	-80.7504	-5.5978	-107.689	-133.409	-26.3058	-65.1135	-114.932	-30.3895	-86.9047	-86.9247	-25.9836	-96.221	-129.415	-44.3876	-44.8519	-114.122	-46.3028	-67.5737	-89.958	-42.0509	-80.0244	-156.433	-25.1919	-12.4183	-161.046	-22.2704	16.3071	-163.435	11.7324	-8.11461	
